<?xml version="1.0" encoding="UTF-8"?>
<svg id="Capa_2" data-name="Capa 2" xmlns="http://www.w3.org/2000/svg" viewBox="0 0 723.81 799.99">
  <defs>
    <style>
      .cls-1 {
        fill: #fafafa;
        fill-rule: evenodd;
      }
    </style>
  </defs>
  <g id="Capa_2-2" data-name="Capa 2">
    <path class="cls-1" d="M721.95,208.31c-1.21-4.66-3.3-9.11-6.9-12.88-.32-.42-.66-.83-1.02-1.23h.01c-3.5-4.6-7.43-8.09-12.57-10.99-63.68-35.65-254.68-142.07-318.36-177.73-2.85-1.6-5.93-2.85-9.13-3.75-.02-.01-.05-.01-.08-.02-3.64-1.06-7.41-1.63-11.18-1.7-.27-.01-.54-.01-.81-.01-7.73-.11-15.49,1.65-22.06,5.33C276.18,41,84.52,148.34,20.84,184,7.95,191.2,0,204.53,0,218.97v360.72c0,14.51,7.97,27.9,20.88,35.16,63.92,35.87,256.23,143.83,320.13,179.7,12.92,7.25,28.84,7.25,41.78,0,63.92-35.87,256.22-143.83,320.13-179.7,12.93-7.26,20.89-20.66,20.89-35.18V220.3c0-4.12-.64-8.16-1.86-11.99ZM361.91,666.66c-100.65,0-188.36-55.88-233.75-138.29-20.98-38.09-32.92-81.84-32.92-128.37,0-147.19,119.49-266.67,266.67-266.67,97.58,0,182.99,52.52,229.48,130.82l-115.86,66.09c-23.47-38.14-65.6-63.58-113.62-63.58-73.6,0-133.33,59.74-133.33,133.34,0,22.49,5.58,43.69,15.44,62.29,22.38,42.24,66.8,71.04,117.89,71.04s91.78-26.44,114.97-65.81l116.85,64.29c-45.92,80.52-132.57,134.85-231.82,134.85Z"/>
  </g>
</svg>