<?xml version="1.0" encoding="UTF-8"?>
<svg id="Capa_2" data-name="Capa 2" xmlns="http://www.w3.org/2000/svg" viewBox="0 0 800.67 800.67">
  <defs>
    <style>
      .cls-1 {
        fill: #fafafa;
        stroke: #fafafa;
        stroke-miterlimit: 2.67;
        stroke-width: .67px;
      }
    </style>
  </defs>
  <g id="svg2">
    <path class="cls-1" d="M672.33.33H.33v672c0,70.69,57.31,128,128,128h544c70.69,0,128-57.31,128-128V128.33C800.33,57.64,743.03.33,672.33.33ZM286.81,736.33s0,0,0,0h0s0,0,0,0c-51.38-.05-83.09-28.98-82.48-82.23v-134.71c0-26.99,7.9-47.52,23.71-61.57,28.39-27.35,94.26-29.02,122.07.42,17.14,15.11,23.6,45.98,22.06,74.79h-58.98c.45-11.32-.15-28.46-6.81-34.92-8.65-11.7-31.49-10.33-37.53,1.86-3.71,6.61-5.57,16.39-5.57,29.34v116.94c0,24.52,8.52,36.92,25.57,37.19,7.97,0,14.02-2.9,18.14-8.68,5.75-6.86,6.65-22.06,6.18-33.06h58.98c4.03,56.05-29.05,95.33-85.36,94.63ZM474.04,736.32v.02c-56.93.78-82.4-39.73-80.82-94.63h55.67c-1.54,23.94,6.68,45.74,26.39,44.22,8.79,0,14.98-2.75,18.56-8.26,6.8-10.07,8.07-39.16-1.65-50.42-6.79-10.84-31.22-20.41-44.13-26.86-18.42-8.82-31.69-19.28-39.8-31.41-18.3-26.91-16.6-85.98,9.07-109.92,24.94-29.54,90.09-30.9,115.06-.62,15.4,15.61,22.13,46.32,20.82,74.58h-53.62c.46-11.62-.64-30.36-5.15-37.19-3.16-5.78-9.14-8.68-17.94-8.68-15.67,0-23.5,9.37-23.5,28.1.17,19.89,7.92,28.05,25.98,36.36,23.39,9.09,53.14,24.61,63.92,43.39,32.16,57.23,10.1,144.66-68.87,141.32ZM653.85,736.32v.02c-56.93.78-82.4-39.73-80.82-94.63h55.67c-1.54,23.94,6.68,45.74,26.39,44.22,8.79,0,14.98-2.75,18.56-8.26,6.8-10.07,8.07-39.16-1.65-50.42-6.79-10.84-31.22-20.41-44.13-26.86-18.42-8.82-31.69-19.28-39.8-31.41-18.3-26.91-16.6-85.98,9.07-109.92,24.94-29.54,90.09-30.9,115.06-.62,15.4,15.61,22.13,46.32,20.82,74.58h-53.62c.46-11.62-.64-30.36-5.15-37.19-3.16-5.78-9.14-8.68-17.94-8.68-15.67,0-23.5,9.37-23.5,28.1.17,19.89,7.92,28.05,25.98,36.36,23.39,9.09,53.14,24.61,63.92,43.39,32.16,57.23,10.1,144.66-68.87,141.32Z"/>
  </g>
</svg>