<?xml version="1.0" encoding="UTF-8"?>
<svg id="Capa_2" data-name="Capa 2" xmlns="http://www.w3.org/2000/svg" viewBox="0 0 498.66 475.32">
  <defs>
    <style>
      .cls-1 {
        fill: #fafafa;
      }
    </style>
  </defs>
  <g id="Capa_2-2" data-name="Capa 2">
    <g id="svg2">
      <path class="cls-1" d="M248.21,356.58c-.07-14.03-9.89-23.54-23.6-23.59l-119.29-.37c-9.12-.03-11.51-14.65-6.91-21.04l77.04-106.97c7.15-9.92,4.89-35.38-8.94-35.55l-153.13-1.88c-5.73-.07-10.06-3.52-11.8-6.23-3.36-5.21-.87-11.59,2.89-16.81L108.34,0l248.24.05,56.41-.05c6.62,0,11.54,2.88,13.24,6.38,2.24,4.59,2.62,10.28-1,15.24l-68.42,93.74c-6.91,9.46-14.17,14.91-12.55,27.81.93,7.41,2.68,22.73,15.84,22.95l129.74,2.2c6.31.11,8.04,5.86,8.66,9.47.93,5.41-2.32,7.5-6.07,12.3l-217.55,277.73c-4.67,5.96-11.14,8.52-16.83,7.13-4.95-1.21-9.31-7.11-9.35-14.46l-.49-103.9h0Z"/>
    </g>
  </g>
</svg>