<?xml version="1.0" encoding="UTF-8"?>
<svg id="Capa_2" data-name="Capa 2" xmlns="http://www.w3.org/2000/svg" viewBox="0 0 909.51 740.15">
  <defs>
    <style>
      .cls-1 {
        fill: #fff;
      }

      .cls-2 {
        fill: #1d1e1b;
      }
    </style>
  </defs>
  <g id="Capa_4" data-name="Capa 4">
    <g>
      <polygon class="cls-1" points="437.48 281.66 660.92 281.66 490.26 380.19 388.36 380.19 347.17 462.8 158.37 571.8 294.29 299.19 227.6 299.19 343.55 66.61 708.79 66.61 627.54 229.56 463.46 229.56 437.48 281.66"/>
      <path class="cls-2" d="M709.21,215.05L816.42,0H302.34L119.95,365.8h66.69L0,740.15,909.51,215.05h-200.3ZM158.37,571.8l135.92-272.61h-66.69l115.96-232.58h365.23l-81.25,162.95h-164.08l-25.98,52.1h223.43l-170.66,98.53h-101.9l-41.19,82.61-188.8,109Z"/>
    </g>
  </g>
</svg>